<svg xmlns="http://www.w3.org/2000/svg" xmlns:xlink="http://www.w3.org/1999/xlink" width="170" zoomAndPan="magnify" viewBox="0 0 127.5 37.5" height="50" preserveAspectRatio="xMidYMid meet" version="1.0"><defs><g/><clipPath id="c4da9b640a"><path d="M 0.59375 0 L 126.414062 0 L 126.414062 37.007812 L 0.59375 37.007812 Z M 0.59375 0 " clip-rule="nonzero"/></clipPath><clipPath id="356f10b509"><path d="M 1.628906 0 L 35.675781 0 L 35.675781 36.265625 L 1.628906 36.265625 Z M 1.628906 0 " clip-rule="nonzero"/></clipPath></defs><g clip-path="url(#c4da9b640a)"><path fill="#ffffff" d="M 0.59375 0 L 126.414062 0 L 126.414062 37.007812 L 0.59375 37.007812 Z M 0.59375 0 " fill-opacity="1" fill-rule="nonzero"/><path fill="#ffffff" d="M 0.59375 0 L 126.414062 0 L 126.414062 37.007812 L 0.59375 37.007812 Z M 0.59375 0 " fill-opacity="1" fill-rule="nonzero"/></g><g clip-path="url(#356f10b509)"><path fill="#000000" d="M 19.960938 34.972656 L 19.960938 1.296875 C 19.960938 0.582031 19.375 0 18.652344 0 C 17.929688 0 17.34375 0.582031 17.34375 1.296875 L 17.34375 34.972656 C 17.34375 35.6875 17.929688 36.265625 18.652344 36.265625 C 19.375 36.265625 19.960938 35.6875 19.960938 34.972656 Z M 25.195312 28.496094 L 25.195312 7.769531 C 25.195312 7.054688 24.609375 6.476562 23.886719 6.476562 C 23.164062 6.476562 22.578125 7.054688 22.578125 7.769531 L 22.578125 28.496094 C 22.578125 29.210938 23.164062 29.789062 23.886719 29.789062 C 24.609375 29.789062 25.195312 29.210938 25.195312 28.496094 Z M 14.726562 28.496094 L 14.726562 7.769531 C 14.726562 7.054688 14.140625 6.476562 13.417969 6.476562 C 12.695312 6.476562 12.109375 7.054688 12.109375 7.769531 L 12.109375 28.496094 C 12.109375 29.210938 12.695312 29.789062 13.417969 29.789062 C 14.140625 29.789062 14.726562 29.210938 14.726562 28.496094 Z M 30.429688 24.609375 L 30.429688 11.65625 C 30.429688 10.941406 29.84375 10.363281 29.121094 10.363281 C 28.398438 10.363281 27.8125 10.941406 27.8125 11.65625 L 27.8125 24.609375 C 27.8125 25.324219 28.398438 25.90625 29.121094 25.90625 C 29.84375 25.90625 30.429688 25.324219 30.429688 24.609375 Z M 9.492188 24.609375 L 9.492188 11.65625 C 9.492188 10.941406 8.90625 10.363281 8.183594 10.363281 C 7.460938 10.363281 6.875 10.941406 6.875 11.65625 L 6.875 24.609375 C 6.875 25.324219 7.460938 25.90625 8.183594 25.90625 C 8.90625 25.90625 9.492188 25.324219 9.492188 24.609375 Z M 4.257812 22.019531 L 4.257812 14.246094 C 4.257812 13.53125 3.671875 12.953125 2.949219 12.953125 C 2.226562 12.953125 1.640625 13.53125 1.640625 14.246094 L 1.640625 22.019531 C 1.640625 22.734375 2.226562 23.3125 2.949219 23.3125 C 3.671875 23.3125 4.257812 22.734375 4.257812 22.019531 Z M 35.664062 22.019531 L 35.664062 14.246094 C 35.664062 13.53125 35.078125 12.953125 34.355469 12.953125 C 33.632812 12.953125 33.046875 13.53125 33.046875 14.246094 L 33.046875 22.019531 C 33.046875 22.734375 33.632812 23.3125 34.355469 23.3125 C 35.078125 23.3125 35.664062 22.734375 35.664062 22.019531 Z M 35.664062 22.019531 " fill-opacity="1" fill-rule="evenodd"/></g><g fill="#ff3131" fill-opacity="1"><g transform="translate(37.969887, 24.054276)"><g><path d="M 1.984375 -1.3125 C 0.984375 -2.40625 0.484375 -3.742188 0.484375 -5.328125 C 0.484375 -6.910156 0.984375 -8.25 1.984375 -9.34375 C 2.984375 -10.445312 4.253906 -11 5.796875 -11 C 7.210938 -11 8.378906 -10.554688 9.296875 -9.671875 L 9.296875 -10.6875 L 12.96875 -10.6875 L 12.96875 0 L 9.328125 0 L 9.328125 -1.203125 L 9.296875 -1.203125 C 8.378906 -0.191406 7.210938 0.3125 5.796875 0.3125 C 4.253906 0.3125 2.984375 -0.226562 1.984375 -1.3125 Z M 5.109375 -7.140625 C 4.628906 -6.671875 4.390625 -6.066406 4.390625 -5.328125 C 4.390625 -4.597656 4.617188 -4 5.078125 -3.53125 C 5.535156 -3.0625 6.140625 -2.828125 6.890625 -2.828125 C 7.617188 -2.828125 8.210938 -3.0625 8.671875 -3.53125 C 9.140625 -4.007812 9.375 -4.609375 9.375 -5.328125 C 9.375 -6.066406 9.132812 -6.671875 8.65625 -7.140625 C 8.175781 -7.617188 7.585938 -7.859375 6.890625 -7.859375 C 6.179688 -7.859375 5.585938 -7.617188 5.109375 -7.140625 Z M 5.109375 -7.140625 "/></g></g></g><g fill="#ff3131" fill-opacity="1"><g transform="translate(52.195205, 24.054276)"><g><path d="M 12.25 -9.34375 C 13.25 -8.25 13.75 -6.910156 13.75 -5.328125 C 13.75 -3.742188 13.25 -2.40625 12.25 -1.3125 C 11.25 -0.226562 9.976562 0.3125 8.4375 0.3125 C 7.019531 0.3125 5.851562 -0.191406 4.9375 -1.203125 L 4.890625 -1.203125 L 4.890625 0 L 1.25 0 L 1.25 -17.90625 L 4.9375 -17.90625 L 4.9375 -9.671875 C 5.851562 -10.554688 7.019531 -11 8.4375 -11 C 9.976562 -11 11.25 -10.445312 12.25 -9.34375 Z M 9.140625 -3.53125 C 9.597656 -4 9.828125 -4.597656 9.828125 -5.328125 C 9.828125 -6.066406 9.585938 -6.671875 9.109375 -7.140625 C 8.628906 -7.617188 8.035156 -7.859375 7.328125 -7.859375 C 6.640625 -7.859375 6.054688 -7.617188 5.578125 -7.140625 C 5.097656 -6.671875 4.859375 -6.066406 4.859375 -5.328125 C 4.859375 -4.609375 5.085938 -4.007812 5.546875 -3.53125 C 6.015625 -3.0625 6.609375 -2.828125 7.328125 -2.828125 C 8.078125 -2.828125 8.679688 -3.0625 9.140625 -3.53125 Z M 9.140625 -3.53125 "/></g></g></g><g fill="#ff3131" fill-opacity="1"><g transform="translate(66.420523, 24.054276)"><g><path d="M 6.9375 -7.984375 C 6.238281 -7.984375 5.640625 -7.722656 5.140625 -7.203125 C 4.640625 -6.691406 4.390625 -6.078125 4.390625 -5.359375 C 4.390625 -4.617188 4.640625 -3.988281 5.140625 -3.46875 C 5.640625 -2.957031 6.238281 -2.703125 6.9375 -2.703125 C 7.269531 -2.703125 7.582031 -2.742188 7.875 -2.828125 C 8.175781 -2.910156 8.398438 -2.992188 8.546875 -3.078125 L 8.734375 -3.203125 L 9.984375 -0.640625 C 9.878906 -0.578125 9.738281 -0.492188 9.5625 -0.390625 C 9.394531 -0.285156 9 -0.144531 8.375 0.03125 C 7.757812 0.21875 7.097656 0.3125 6.390625 0.3125 C 4.828125 0.3125 3.453125 -0.238281 2.265625 -1.34375 C 1.078125 -2.445312 0.484375 -3.769531 0.484375 -5.3125 C 0.484375 -6.863281 1.078125 -8.195312 2.265625 -9.3125 C 3.453125 -10.4375 4.828125 -11 6.390625 -11 C 7.097656 -11 7.75 -10.914062 8.34375 -10.75 C 8.945312 -10.582031 9.375 -10.414062 9.625 -10.25 L 9.984375 -10 L 8.734375 -7.484375 C 8.273438 -7.816406 7.675781 -7.984375 6.9375 -7.984375 Z M 6.9375 -7.984375 "/></g></g></g><g fill="#000000" fill-opacity="1"><g transform="translate(76.653325, 24.054276)"><g><path d="M 1.25 0 L 1.25 -10.6875 L 4.9375 -10.6875 L 4.9375 -9.5625 L 4.984375 -9.5625 C 5.941406 -10.519531 6.960938 -11 8.046875 -11 C 8.816406 -11 9.539062 -10.835938 10.21875 -10.515625 C 10.90625 -10.203125 11.421875 -9.710938 11.765625 -9.046875 C 12.847656 -10.347656 14.03125 -11 15.3125 -11 C 16.445312 -11 17.421875 -10.675781 18.234375 -10.03125 C 19.054688 -9.394531 19.46875 -8.398438 19.46875 -7.046875 L 19.46875 0 L 15.78125 0 L 15.78125 -6.046875 C 15.78125 -6.609375 15.625 -7.082031 15.3125 -7.46875 C 15 -7.851562 14.53125 -8.046875 13.90625 -8.046875 C 13.363281 -8.046875 12.953125 -7.878906 12.671875 -7.546875 C 12.390625 -7.222656 12.234375 -6.832031 12.203125 -6.375 L 12.203125 0 L 8.515625 0 L 8.515625 -6.046875 C 8.515625 -6.609375 8.359375 -7.082031 8.046875 -7.46875 C 7.734375 -7.851562 7.265625 -8.046875 6.640625 -8.046875 C 6.078125 -8.046875 5.648438 -7.867188 5.359375 -7.515625 C 5.078125 -7.160156 4.9375 -6.738281 4.9375 -6.25 L 4.9375 0 Z M 1.25 0 "/></g></g></g><g fill="#000000" fill-opacity="1"><g transform="translate(97.168609, 24.054276)"><g><path d="M 12.25 -9.359375 C 13.25 -8.273438 13.75 -6.941406 13.75 -5.359375 C 13.75 -3.773438 13.25 -2.429688 12.25 -1.328125 C 11.25 -0.234375 9.976562 0.3125 8.4375 0.3125 C 7.019531 0.3125 5.851562 -0.128906 4.9375 -1.015625 L 4.9375 5.421875 L 1.25 5.421875 L 1.25 -10.6875 L 4.890625 -10.6875 L 4.890625 -9.484375 L 4.9375 -9.484375 C 5.851562 -10.492188 7.019531 -11 8.4375 -11 C 9.976562 -11 11.25 -10.453125 12.25 -9.359375 Z M 9.109375 -3.53125 C 9.585938 -4.007812 9.828125 -4.613281 9.828125 -5.34375 C 9.828125 -6.082031 9.597656 -6.6875 9.140625 -7.15625 C 8.679688 -7.625 8.078125 -7.859375 7.328125 -7.859375 C 6.609375 -7.859375 6.015625 -7.617188 5.546875 -7.140625 C 5.085938 -6.671875 4.859375 -6.078125 4.859375 -5.359375 C 4.859375 -4.617188 5.097656 -4.007812 5.578125 -3.53125 C 6.054688 -3.0625 6.640625 -2.828125 7.328125 -2.828125 C 8.035156 -2.828125 8.628906 -3.0625 9.109375 -3.53125 Z M 9.109375 -3.53125 "/></g></g></g><g fill="#000000" fill-opacity="1"><g transform="translate(111.393927, 24.054276)"><g><path d="M 4.265625 -12.21875 L 1.1875 -13.71875 C 1.21875 -13.820312 1.257812 -13.957031 1.3125 -14.125 C 1.363281 -14.300781 1.53125 -14.601562 1.8125 -15.03125 C 2.09375 -15.46875 2.421875 -15.851562 2.796875 -16.1875 C 3.171875 -16.519531 3.71875 -16.820312 4.4375 -17.09375 C 5.15625 -17.363281 5.96875 -17.5 6.875 -17.5 C 8.507812 -17.5 9.859375 -17.03125 10.921875 -16.09375 C 11.984375 -15.15625 12.515625 -13.957031 12.515625 -12.5 C 12.515625 -11.132812 12.007812 -10.054688 11 -9.265625 C 12.457031 -8.378906 13.1875 -7.066406 13.1875 -5.328125 C 13.1875 -3.691406 12.582031 -2.34375 11.375 -1.28125 C 10.175781 -0.21875 8.65625 0.3125 6.8125 0.3125 C 5.820312 0.3125 4.925781 0.164062 4.125 -0.125 C 3.320312 -0.414062 2.691406 -0.765625 2.234375 -1.171875 C 1.785156 -1.585938 1.410156 -2.003906 1.109375 -2.421875 C 0.816406 -2.835938 0.613281 -3.191406 0.5 -3.484375 L 0.359375 -3.921875 L 3.984375 -5.6875 C 3.984375 -5.613281 3.992188 -5.519531 4.015625 -5.40625 C 4.035156 -5.289062 4.109375 -5.078125 4.234375 -4.765625 C 4.359375 -4.460938 4.507812 -4.195312 4.6875 -3.96875 C 4.863281 -3.738281 5.132812 -3.53125 5.5 -3.34375 C 5.875 -3.15625 6.304688 -3.0625 6.796875 -3.0625 C 7.523438 -3.0625 8.117188 -3.257812 8.578125 -3.65625 C 9.035156 -4.0625 9.265625 -4.617188 9.265625 -5.328125 C 9.265625 -6.066406 9.023438 -6.671875 8.546875 -7.140625 C 8.066406 -7.617188 7.484375 -7.859375 6.796875 -7.859375 L 6.046875 -7.734375 L 6.046875 -10.28125 L 6.890625 -10.28125 C 7.429688 -10.28125 7.910156 -10.488281 8.328125 -10.90625 C 8.742188 -11.320312 8.953125 -11.835938 8.953125 -12.453125 C 8.953125 -12.992188 8.738281 -13.441406 8.3125 -13.796875 C 7.894531 -14.160156 7.398438 -14.34375 6.828125 -14.34375 C 6.429688 -14.34375 6.066406 -14.269531 5.734375 -14.125 C 5.410156 -13.976562 5.160156 -13.800781 4.984375 -13.59375 C 4.816406 -13.382812 4.671875 -13.175781 4.546875 -12.96875 C 4.429688 -12.757812 4.359375 -12.585938 4.328125 -12.453125 Z M 4.265625 -12.21875 "/></g></g></g></svg>